<?xml version="1.0" encoding="UTF-8" standalone="no"?>
<!DOCTYPE svg PUBLIC "-//W3C//DTD SVG 1.1//EN" "http://www.w3.org/Graphics/SVG/1.1/DTD/svg11.dtd">
<svg width="24" height="24" viewBox="0 0 500 500" version="1.1" xmlns="http://www.w3.org/2000/svg">
    <g id="Icon-Gear" transform="matrix(13.2066,0,0,13.2066,-0.924459,-0.924459)">
        <path
            fill-rule="evenodd"
            clip-rule="evenodd"
            fill="currentColor"
            id="Fill-45"
            d="M19,27.93C14.076,27.93 10.07,23.924 10.07,19C10.07,14.076 14.076,10.07 19,10.07C23.924,10.07 27.93,14.076 27.93,19C27.93,23.924 23.924,27.93 19,27.93ZM19,11.93C15.102,11.93 11.93,15.102 11.93,19C11.93,22.898 15.102,26.07 19,26.07C22.898,26.07 26.07,22.898 26.07,19C26.07,15.102 22.898,11.93 19,11.93Z"/>
        <path
            fill-rule="evenodd"
            clip-rule="evenodd"
            fill="currentColor"
            id="Fill-46"
            d="M21.67,37.93L16.33,37.93L14.789,33.31C13.77,33.011 12.788,32.604 11.857,32.096L7.503,34.273L3.726,30.497L5.904,26.142C5.396,25.213 4.99,24.231 4.69,23.21L0.07,21.67L0.07,16.33L4.69,14.79C4.99,13.769 5.396,12.787 5.904,11.858L3.726,7.503L7.503,3.726L11.857,5.904C12.788,5.396 13.77,4.989 14.789,4.69L16.33,0.07L21.67,0.07L23.211,4.69C24.229,4.989 25.212,5.396 26.143,5.904L30.497,3.726L34.274,7.503L32.096,11.858C32.604,12.787 33.01,13.769 33.31,14.79L37.93,16.33L37.93,21.67L33.31,23.21C33.01,24.231 32.604,25.213 32.096,26.142L34.274,30.497L30.497,34.273L26.143,32.096C25.212,32.604 24.229,33.011 23.211,33.31L21.67,37.93ZM17.67,36.07L20.33,36.07L21.764,31.77L22.254,31.644C23.445,31.338 24.585,30.867 25.641,30.242L26.077,29.984L30.13,32.011L32.011,30.13L29.983,26.077L30.242,25.64C30.865,24.587 31.337,23.448 31.645,22.253L31.77,21.763L36.07,20.33L36.07,17.67L31.77,16.237L31.645,15.747C31.337,14.552 30.865,13.413 30.242,12.36L29.983,11.923L32.011,7.87L30.13,5.989L26.077,8.016L25.641,7.758C24.585,7.133 23.445,6.662 22.254,6.356L21.764,6.23L20.33,1.93L17.67,1.93L16.236,6.23L15.746,6.356C14.555,6.662 13.415,7.133 12.359,7.758L11.923,8.016L7.87,5.989L5.989,7.87L8.017,11.923L7.758,12.36C7.135,13.413 6.663,14.552 6.355,15.747L6.229,16.237L1.93,17.67L1.93,20.33L6.229,21.763L6.355,22.253C6.663,23.448 7.135,24.587 7.758,25.64L8.017,26.077L5.989,30.13L7.87,32.011L11.923,29.984L12.359,30.242C13.415,30.867 14.555,31.338 15.746,31.644L16.236,31.77L17.67,36.07Z"/>
    </g>
</svg>
